<mxfile host="app.diagrams.net" modified="2024-01-10T14:28:43.735Z" agent="Mozilla/5.0 (Windows NT 10.0; Win64; x64) AppleWebKit/537.36 (KHTML, like Gecko) Chrome/120.0.0.0 Safari/537.36 OPR/106.0.0.0" etag="gM9_QOILhm-NCjxwWW_C" version="22.1.17" type="device">
  <diagram name="Page-1" id="pdZKLtNSstNS5UBZ7wB8">
    <mxGraphModel dx="1380" dy="741" grid="1" gridSize="10" guides="1" tooltips="1" connect="1" arrows="1" fold="1" page="1" pageScale="1" pageWidth="827" pageHeight="1169" math="0" shadow="0">
      <root>
        <mxCell id="0" />
        <mxCell id="1" parent="0" />
        <mxCell id="YR6al3q1M4vhctcmm0lI-3" style="edgeStyle=orthogonalEdgeStyle;rounded=0;orthogonalLoop=1;jettySize=auto;html=1;" parent="1" source="YR6al3q1M4vhctcmm0lI-1" target="YR6al3q1M4vhctcmm0lI-2" edge="1">
          <mxGeometry relative="1" as="geometry" />
        </mxCell>
        <mxCell id="YR6al3q1M4vhctcmm0lI-1" value="IDLE" style="whiteSpace=wrap;html=1;aspect=fixed;" parent="1" vertex="1">
          <mxGeometry x="365" y="310" width="80" height="80" as="geometry" />
        </mxCell>
        <mxCell id="YR6al3q1M4vhctcmm0lI-5" style="edgeStyle=orthogonalEdgeStyle;rounded=0;orthogonalLoop=1;jettySize=auto;html=1;" parent="1" source="YR6al3q1M4vhctcmm0lI-2" target="YR6al3q1M4vhctcmm0lI-4" edge="1">
          <mxGeometry relative="1" as="geometry" />
        </mxCell>
        <mxCell id="YR6al3q1M4vhctcmm0lI-7" style="edgeStyle=orthogonalEdgeStyle;rounded=0;orthogonalLoop=1;jettySize=auto;html=1;" parent="1" source="YR6al3q1M4vhctcmm0lI-4" target="YR6al3q1M4vhctcmm0lI-6" edge="1">
          <mxGeometry relative="1" as="geometry" />
        </mxCell>
        <mxCell id="-uieBPhgWzSAkYTx_XKp-9" style="edgeStyle=orthogonalEdgeStyle;rounded=0;orthogonalLoop=1;jettySize=auto;html=1;" edge="1" parent="1" source="YR6al3q1M4vhctcmm0lI-6" target="-uieBPhgWzSAkYTx_XKp-8">
          <mxGeometry relative="1" as="geometry" />
        </mxCell>
        <mxCell id="YR6al3q1M4vhctcmm0lI-6" value="Find_Something" style="ellipse;whiteSpace=wrap;html=1;" parent="1" vertex="1">
          <mxGeometry x="237.5" y="660" width="120" height="80" as="geometry" />
        </mxCell>
        <mxCell id="YR6al3q1M4vhctcmm0lI-9" value="" style="whiteSpace=wrap;html=1;aspect=fixed;" parent="1" vertex="1">
          <mxGeometry x="30" y="30" width="40" height="40" as="geometry" />
        </mxCell>
        <mxCell id="YR6al3q1M4vhctcmm0lI-10" value="" style="ellipse;whiteSpace=wrap;html=1;" parent="1" vertex="1">
          <mxGeometry x="30" y="80" width="50" height="30" as="geometry" />
        </mxCell>
        <mxCell id="YR6al3q1M4vhctcmm0lI-11" value=":&amp;nbsp; state" style="text;html=1;align=center;verticalAlign=middle;resizable=0;points=[];autosize=1;strokeColor=none;fillColor=none;" parent="1" vertex="1">
          <mxGeometry x="70" y="35" width="60" height="30" as="geometry" />
        </mxCell>
        <mxCell id="YR6al3q1M4vhctcmm0lI-12" value=":&amp;nbsp; transition" style="text;html=1;align=center;verticalAlign=middle;resizable=0;points=[];autosize=1;strokeColor=none;fillColor=none;" parent="1" vertex="1">
          <mxGeometry x="75" y="80" width="80" height="30" as="geometry" />
        </mxCell>
        <mxCell id="WFf7QCSrhYDpWtRu7B9K-3" style="edgeStyle=orthogonalEdgeStyle;rounded=0;orthogonalLoop=1;jettySize=auto;html=1;" parent="1" source="WFf7QCSrhYDpWtRu7B9K-1" target="WFf7QCSrhYDpWtRu7B9K-2" edge="1">
          <mxGeometry relative="1" as="geometry" />
        </mxCell>
        <mxCell id="WFf7QCSrhYDpWtRu7B9K-1" value="FSM Component" style="rounded=1;whiteSpace=wrap;html=1;" parent="1" vertex="1">
          <mxGeometry x="345" y="50" width="120" height="60" as="geometry" />
        </mxCell>
        <mxCell id="WFf7QCSrhYDpWtRu7B9K-4" style="edgeStyle=orthogonalEdgeStyle;rounded=0;orthogonalLoop=1;jettySize=auto;html=1;" parent="1" source="WFf7QCSrhYDpWtRu7B9K-2" target="YR6al3q1M4vhctcmm0lI-1" edge="1">
          <mxGeometry relative="1" as="geometry" />
        </mxCell>
        <mxCell id="WFf7QCSrhYDpWtRu7B9K-2" value="FSM&lt;br&gt;ResearchAndClean" style="rhombus;whiteSpace=wrap;html=1;" parent="1" vertex="1">
          <mxGeometry x="307.5" y="150" width="195" height="100" as="geometry" />
        </mxCell>
        <mxCell id="YR6al3q1M4vhctcmm0lI-2" value="WAIT" style="ellipse;whiteSpace=wrap;html=1;" parent="1" vertex="1">
          <mxGeometry x="347.5" y="420" width="115" height="70" as="geometry" />
        </mxCell>
        <mxCell id="-uieBPhgWzSAkYTx_XKp-6" style="edgeStyle=orthogonalEdgeStyle;rounded=0;orthogonalLoop=1;jettySize=auto;html=1;" edge="1" parent="1" source="YR6al3q1M4vhctcmm0lI-4" target="-uieBPhgWzSAkYTx_XKp-5">
          <mxGeometry relative="1" as="geometry" />
        </mxCell>
        <mxCell id="YR6al3q1M4vhctcmm0lI-4" value="GoSomewhere" style="whiteSpace=wrap;html=1;aspect=fixed;" parent="1" vertex="1">
          <mxGeometry x="357.5" y="520" width="95" height="95" as="geometry" />
        </mxCell>
        <mxCell id="WFf7QCSrhYDpWtRu7B9K-7" value="Starting State" style="text;html=1;align=center;verticalAlign=middle;resizable=0;points=[];autosize=1;strokeColor=none;fillColor=none;" parent="1" vertex="1">
          <mxGeometry x="402.5" y="260" width="100" height="30" as="geometry" />
        </mxCell>
        <mxCell id="-uieBPhgWzSAkYTx_XKp-1" value="" style="rhombus;whiteSpace=wrap;html=1;" vertex="1" parent="1">
          <mxGeometry x="30" y="120" width="50" height="50" as="geometry" />
        </mxCell>
        <mxCell id="-uieBPhgWzSAkYTx_XKp-2" value=":&amp;nbsp; FSM" style="text;html=1;align=center;verticalAlign=middle;resizable=0;points=[];autosize=1;strokeColor=none;fillColor=none;" vertex="1" parent="1">
          <mxGeometry x="70" y="130" width="60" height="30" as="geometry" />
        </mxCell>
        <mxCell id="-uieBPhgWzSAkYTx_XKp-7" style="edgeStyle=orthogonalEdgeStyle;rounded=0;orthogonalLoop=1;jettySize=auto;html=1;" edge="1" parent="1" source="-uieBPhgWzSAkYTx_XKp-5" target="YR6al3q1M4vhctcmm0lI-1">
          <mxGeometry relative="1" as="geometry">
            <Array as="points">
              <mxPoint x="630" y="700" />
              <mxPoint x="630" y="350" />
            </Array>
          </mxGeometry>
        </mxCell>
        <mxCell id="-uieBPhgWzSAkYTx_XKp-5" value="Reached_Destination" style="ellipse;whiteSpace=wrap;html=1;" vertex="1" parent="1">
          <mxGeometry x="445" y="660" width="135" height="80" as="geometry" />
        </mxCell>
        <mxCell id="-uieBPhgWzSAkYTx_XKp-11" style="edgeStyle=orthogonalEdgeStyle;rounded=0;orthogonalLoop=1;jettySize=auto;html=1;" edge="1" parent="1" source="-uieBPhgWzSAkYTx_XKp-8" target="-uieBPhgWzSAkYTx_XKp-10">
          <mxGeometry relative="1" as="geometry" />
        </mxCell>
        <mxCell id="-uieBPhgWzSAkYTx_XKp-8" value="Clean" style="whiteSpace=wrap;html=1;aspect=fixed;" vertex="1" parent="1">
          <mxGeometry x="262.5" y="780" width="70" height="70" as="geometry" />
        </mxCell>
        <mxCell id="-uieBPhgWzSAkYTx_XKp-12" style="edgeStyle=orthogonalEdgeStyle;rounded=0;orthogonalLoop=1;jettySize=auto;html=1;entryX=0;entryY=0.5;entryDx=0;entryDy=0;" edge="1" parent="1" source="-uieBPhgWzSAkYTx_XKp-10" target="YR6al3q1M4vhctcmm0lI-1">
          <mxGeometry relative="1" as="geometry">
            <Array as="points">
              <mxPoint x="180" y="940" />
              <mxPoint x="180" y="350" />
            </Array>
          </mxGeometry>
        </mxCell>
        <mxCell id="-uieBPhgWzSAkYTx_XKp-10" value="Wait_Clean" style="ellipse;whiteSpace=wrap;html=1;" vertex="1" parent="1">
          <mxGeometry x="237.5" y="890" width="120" height="80" as="geometry" />
        </mxCell>
      </root>
    </mxGraphModel>
  </diagram>
</mxfile>
